{
	"patcher" : 	{
		"fileversion" : 1,
		"appversion" : 		{
			"major" : 8,
			"minor" : 1,
			"revision" : 7,
			"architecture" : "x64",
			"modernui" : 1
		}
,
		"classnamespace" : "dsp.gen",
		"rect" : [ 1338.0, 285.0, 642.0, 725.0 ],
		"bglocked" : 0,
		"openinpresentation" : 0,
		"default_fontsize" : 12.0,
		"default_fontface" : 0,
		"default_fontname" : "Arial",
		"gridonopen" : 1,
		"gridsize" : [ 15.0, 15.0 ],
		"gridsnaponopen" : 1,
		"objectsnaponopen" : 1,
		"statusbarvisible" : 2,
		"toolbarvisible" : 1,
		"lefttoolbarpinned" : 0,
		"toptoolbarpinned" : 0,
		"righttoolbarpinned" : 0,
		"bottomtoolbarpinned" : 0,
		"toolbars_unpinned_last_save" : 0,
		"tallnewobj" : 0,
		"boxanimatetime" : 200,
		"enablehscroll" : 1,
		"enablevscroll" : 1,
		"devicewidth" : 0.0,
		"description" : "",
		"digest" : "",
		"tags" : "",
		"style" : "",
		"subpatcher_template" : "",
		"assistshowspatchername" : 0,
		"boxes" : [ 			{
				"box" : 				{
					"code" : "History flatnessVal(0.);\r\nHistory flatness(0.);\r\nHistory flatnessNum(0.);\r\nHistory flatnessDen(0.);\r\n\r\namp = in1;\r\nindex = in2;\r\n\r\nhalfFFT = FFTSIZE * .5;\r\noverlapCompensation = FFTHOP / halfFFT ;\r\n\r\nfreq = overlapCompensation * SAMPLERATE / FFTSIZE;\r\nflatness = flatnessVal;\r\nproduct = 1;\t\r\n\t\r\n\tif (index < (VECTORSIZE-1)){\t\t\r\n\t\t// accumulate while the index is below (vectorsize - 1)\r\n\t\tflatnessNum = (amp * (index * freq)) * product;\r\n\t\tflatnessDen += amp * (index * freq);\r\n\t\t\t\t\r\n\t\t}\r\n\t\t\telse\t\r\n\t\t{\r\n\t\t\t\r\n\t\tflatnessNum = pow(flatnessNum, (1/halfFFT));\r\n\t\tflatnessDen = (1/halfFFT) * flatnessDen;\t\r\n\t\t\t\r\n\t\tflatness = flatnessNum / flatnessDen;\t\t\r\n\t\tflatness = flatness;\r\n\r\n\t\tflatnessVal=flatnessNum;\r\n\r\n\t\tflatnessNum = 0;\r\n\t\tflatnessDen = 0;\r\n\r\n\t\t}\r\n\t\t\t\r\nout1 = 10 * (clamp(((flatness * overlapCompensation) - 0.465),0, 1));",
					"fontface" : 0,
					"fontname" : "<Monospaced>",
					"fontsize" : 12.0,
					"id" : "obj-3",
					"maxclass" : "codebox",
					"numinlets" : 2,
					"numoutlets" : 1,
					"outlettype" : [ "" ],
					"patching_rect" : [ 31.0, 59.0, 569.0, 597.0 ]
				}

			}
, 			{
				"box" : 				{
					"fontname" : "Lato",
					"fontsize" : 12.0,
					"id" : "obj-1",
					"maxclass" : "newobj",
					"numinlets" : 0,
					"numoutlets" : 1,
					"outlettype" : [ "" ],
					"patching_rect" : [ 31.0, 21.0, 30.0, 23.0 ],
					"text" : "in 1"
				}

			}
, 			{
				"box" : 				{
					"fontname" : "Lato",
					"fontsize" : 12.0,
					"id" : "obj-2",
					"maxclass" : "newobj",
					"numinlets" : 0,
					"numoutlets" : 1,
					"outlettype" : [ "" ],
					"patching_rect" : [ 581.0, 21.0, 30.0, 23.0 ],
					"text" : "in 2"
				}

			}
, 			{
				"box" : 				{
					"fontname" : "Lato",
					"fontsize" : 12.0,
					"id" : "obj-4",
					"maxclass" : "newobj",
					"numinlets" : 1,
					"numoutlets" : 0,
					"patching_rect" : [ 31.0, 670.0, 37.0, 23.0 ],
					"text" : "out 1"
				}

			}
 ],
		"lines" : [ 			{
				"patchline" : 				{
					"destination" : [ "obj-3", 0 ],
					"source" : [ "obj-1", 0 ]
				}

			}
, 			{
				"patchline" : 				{
					"destination" : [ "obj-3", 1 ],
					"source" : [ "obj-2", 0 ]
				}

			}
, 			{
				"patchline" : 				{
					"destination" : [ "obj-4", 0 ],
					"source" : [ "obj-3", 0 ]
				}

			}
 ]
	}

}
