{
	"patcher" : 	{
		"fileversion" : 1,
		"appversion" : 		{
			"major" : 8,
			"minor" : 1,
			"revision" : 10,
			"architecture" : "x64",
			"modernui" : 1
		}
,
		"classnamespace" : "dsp.gen",
		"rect" : [ 113.0, 210.0, 694.0, 773.0 ],
		"bglocked" : 0,
		"openinpresentation" : 0,
		"default_fontsize" : 12.0,
		"default_fontface" : 0,
		"default_fontname" : "Arial",
		"gridonopen" : 1,
		"gridsize" : [ 15.0, 15.0 ],
		"gridsnaponopen" : 1,
		"objectsnaponopen" : 1,
		"statusbarvisible" : 2,
		"toolbarvisible" : 1,
		"lefttoolbarpinned" : 0,
		"toptoolbarpinned" : 0,
		"righttoolbarpinned" : 0,
		"bottomtoolbarpinned" : 0,
		"toolbars_unpinned_last_save" : 0,
		"tallnewobj" : 0,
		"boxanimatetime" : 200,
		"enablehscroll" : 1,
		"enablevscroll" : 1,
		"devicewidth" : 0.0,
		"description" : "",
		"digest" : "",
		"tags" : "",
		"style" : "",
		"subpatcher_template" : "",
		"assistshowspatchername" : 0,
		"boxes" : [ 			{
				"box" : 				{
					"code" : "History crestVal(0.);\r\nHistory ampZ(0.);\r\n\r\nParam edgelow;\r\nParam edgehigh;\r\n\r\namp = in1;\r\nindex = in2;\r\n\r\noverlapCompensation = FFTHOP / (FFTSIZE * .5);\r\nbinFreq = SAMPLERATE / FFTSIZE;\r\n\r\nindex1 = floor(edgelow/binFreq);\r\nindex2 = floor(edgehigh/binFreq);\r\n\r\ncrestNum = 0;\r\ncrestDen = 0;\r\n\r\nampMax = ampZ;\r\n\r\ncrest = crestVal;\r\ncrestDenDelta = index2 - index1;\r\n\r\nif (index < (VECTORSIZE-1)){\r\n\t\t\twhile(index >= index1 && index < index2){\r\n\t\t\tcrestNum = max(amp,ampMax);\r\n\t\t\tampZ = crestNum;\r\n\t\t\t\r\n\t\t\tcrestDen += amp;\r\n\t\t\t}\r\n\r\n\t\t}\r\n\telse\t\r\n\t\t{\t\t\t\r\n\t\tcrest = (crestNum / (crestDen * (1/crestDenDelta)));\r\n\t\tcrestVal = overlapCompensation * crest;\r\n\r\n\t\tcrestNum = 0;\r\n\t\tcrestDen = 0;\r\n\t\tampZ = 0;\r\n\t\t}\r\n\t\t\t\r\nout1 =  crest;",
					"fontface" : 0,
					"fontname" : "<Monospaced>",
					"fontsize" : 12.0,
					"id" : "obj-3",
					"maxclass" : "codebox",
					"numinlets" : 2,
					"numoutlets" : 1,
					"outlettype" : [ "" ],
					"patching_rect" : [ 26.0, 38.0, 629.0, 689.0 ]
				}

			}
, 			{
				"box" : 				{
					"fontname" : "Lato",
					"fontsize" : 12.0,
					"id" : "obj-1",
					"maxclass" : "newobj",
					"numinlets" : 0,
					"numoutlets" : 1,
					"outlettype" : [ "" ],
					"patching_rect" : [ 26.0, 9.0, 30.0, 23.0 ],
					"text" : "in 1"
				}

			}
, 			{
				"box" : 				{
					"fontname" : "Lato",
					"fontsize" : 12.0,
					"id" : "obj-2",
					"maxclass" : "newobj",
					"numinlets" : 0,
					"numoutlets" : 1,
					"outlettype" : [ "" ],
					"patching_rect" : [ 636.0, 9.0, 30.0, 23.0 ],
					"text" : "in 2"
				}

			}
, 			{
				"box" : 				{
					"fontname" : "Lato",
					"fontsize" : 12.0,
					"id" : "obj-4",
					"maxclass" : "newobj",
					"numinlets" : 1,
					"numoutlets" : 0,
					"patching_rect" : [ 26.0, 742.0, 37.0, 23.0 ],
					"text" : "out 1"
				}

			}
 ],
		"lines" : [ 			{
				"patchline" : 				{
					"destination" : [ "obj-3", 0 ],
					"source" : [ "obj-1", 0 ]
				}

			}
, 			{
				"patchline" : 				{
					"destination" : [ "obj-3", 1 ],
					"source" : [ "obj-2", 0 ]
				}

			}
, 			{
				"patchline" : 				{
					"destination" : [ "obj-4", 0 ],
					"source" : [ "obj-3", 0 ]
				}

			}
 ]
	}

}
