{
	"patcher" : 	{
		"fileversion" : 1,
		"appversion" : 		{
			"major" : 8,
			"minor" : 1,
			"revision" : 6,
			"architecture" : "x64",
			"modernui" : 1
		}
,
		"classnamespace" : "dsp.gen",
		"rect" : [ 109.0, 154.0, 816.0, 702.0 ],
		"bglocked" : 0,
		"openinpresentation" : 0,
		"default_fontsize" : 12.0,
		"default_fontface" : 0,
		"default_fontname" : "Arial",
		"gridonopen" : 1,
		"gridsize" : [ 15.0, 15.0 ],
		"gridsnaponopen" : 1,
		"objectsnaponopen" : 1,
		"statusbarvisible" : 2,
		"toolbarvisible" : 1,
		"lefttoolbarpinned" : 0,
		"toptoolbarpinned" : 0,
		"righttoolbarpinned" : 0,
		"bottomtoolbarpinned" : 0,
		"toolbars_unpinned_last_save" : 0,
		"tallnewobj" : 0,
		"boxanimatetime" : 200,
		"enablehscroll" : 1,
		"enablevscroll" : 1,
		"devicewidth" : 0.0,
		"description" : "",
		"digest" : "",
		"tags" : "",
		"style" : "",
		"subpatcher_template" : "",
		"assistshowspatchername" : 0,
		"boxes" : [ 			{
				"box" : 				{
					"code" : "History ampMinTemp(0.);\r\nHistory ampMaxTemp(0.);\r\nHistory ampSumTemp(0.);\r\nHistory ampMaxVal(0.);\r\nHistory ampMinVal(0.);\r\nHistory ampSumVal(0.);\r\nHistory ampMeanVal(0.);\r\n\r\n\r\namp = in1;\r\nindex = in2;\r\n\r\noverlapCompensation = FFTHOP / VECTORSIZE;\r\n\r\nampMin = ampMinVal;\r\nampMax = ampMaxVal;\r\nampSum = ampSumVal;\r\nampMean = ampMeanVal;\r\n\r\nfftAdapt = 1/FFTSIZE;\r\n\t\t\r\n\tif (index < (VECTORSIZE-1)){\r\n\t\t\r\n\t\tampSumTemp += amp;\r\n\t\t\r\n\t\tampMax = ((amp) > (ampMaxTemp) ? amp : ampMaxTemp);\r\n\t\tampMaxTemp = ampMax;\r\n\t\t\r\n\t\tampMin = ((amp) < (ampMinTemp) ? amp : ampMinTemp);\r\n\t\tampMinTemp = ampMin;\r\n\t\r\n\t\t}\r\n\t\t\telse\t\r\n\t\t{\r\n\t\t\t\r\n\t\tampMax = ampMax * overlapCompensation;\r\n\t\tampMin = ampMin * overlapCompensation;\r\n\t\tampSum = ampSumTemp * overlapCompensation;\r\n\t\tampMean = ampSum  * overlapCompensation;\r\n\t\t\r\n\t\tampMaxVal = ampMax;\r\n\t\tampMinVal = ampMin;\r\n\t\tampSumVal = ampSum;\r\n\t\tampMeanVal = ampMean;\r\n\t\t\r\n\t\tampMinTemp = 10;\r\n\t\tampMaxTemp = 0;\r\n\t\tampSumTemp = 0;\r\n\r\n\t\t}\r\n\t\t\r\nout1 = sqrt(ampMin);\r\nout2 = sqrt(ampMax);\r\nout3 = sqrt(ampSum);\r\nout4 = sqrt(ampMean);\r\n\r\n\r\n",
					"fontface" : 0,
					"fontname" : "<Monospaced>",
					"fontsize" : 12.0,
					"id" : "obj-11",
					"maxclass" : "codebox",
					"numinlets" : 2,
					"numoutlets" : 4,
					"outlettype" : [ "", "", "", "" ],
					"patching_rect" : [ 45.0, 61.0, 672.0, 552.0 ]
				}

			}
, 			{
				"box" : 				{
					"id" : "obj-9",
					"maxclass" : "newobj",
					"numinlets" : 1,
					"numoutlets" : 0,
					"patching_rect" : [ 698.0, 633.0, 36.0, 22.0 ],
					"text" : "out 4"
				}

			}
, 			{
				"box" : 				{
					"fontname" : "Lato",
					"fontsize" : 12.0,
					"id" : "obj-10",
					"maxclass" : "newobj",
					"numinlets" : 1,
					"numoutlets" : 0,
					"patching_rect" : [ 480.333333333333258, 633.0, 36.0, 23.0 ],
					"text" : "out 3"
				}

			}
, 			{
				"box" : 				{
					"id" : "obj-6",
					"maxclass" : "newobj",
					"numinlets" : 1,
					"numoutlets" : 0,
					"patching_rect" : [ 262.666666666666742, 633.0, 36.0, 22.0 ],
					"text" : "out 2"
				}

			}
, 			{
				"box" : 				{
					"fontname" : "Lato",
					"fontsize" : 12.0,
					"id" : "obj-7",
					"maxclass" : "newobj",
					"numinlets" : 1,
					"numoutlets" : 0,
					"patching_rect" : [ 45.0, 633.0, 36.0, 23.0 ],
					"text" : "out 1"
				}

			}
, 			{
				"box" : 				{
					"fontname" : "Lato",
					"fontsize" : 12.0,
					"id" : "obj-1",
					"maxclass" : "newobj",
					"numinlets" : 0,
					"numoutlets" : 1,
					"outlettype" : [ "" ],
					"patching_rect" : [ 45.0, 30.0, 30.0, 23.0 ],
					"text" : "in 1"
				}

			}
, 			{
				"box" : 				{
					"fontname" : "Lato",
					"fontsize" : 12.0,
					"id" : "obj-2",
					"maxclass" : "newobj",
					"numinlets" : 0,
					"numoutlets" : 1,
					"outlettype" : [ "" ],
					"patching_rect" : [ 698.0, 30.0, 30.0, 23.0 ],
					"text" : "in 2"
				}

			}
 ],
		"lines" : [ 			{
				"patchline" : 				{
					"destination" : [ "obj-11", 0 ],
					"source" : [ "obj-1", 0 ]
				}

			}
, 			{
				"patchline" : 				{
					"destination" : [ "obj-10", 0 ],
					"source" : [ "obj-11", 2 ]
				}

			}
, 			{
				"patchline" : 				{
					"destination" : [ "obj-6", 0 ],
					"source" : [ "obj-11", 1 ]
				}

			}
, 			{
				"patchline" : 				{
					"destination" : [ "obj-7", 0 ],
					"source" : [ "obj-11", 0 ]
				}

			}
, 			{
				"patchline" : 				{
					"destination" : [ "obj-9", 0 ],
					"source" : [ "obj-11", 3 ]
				}

			}
, 			{
				"patchline" : 				{
					"destination" : [ "obj-11", 1 ],
					"source" : [ "obj-2", 0 ]
				}

			}
 ]
	}

}
