{
	"patcher" : 	{
		"fileversion" : 1,
		"appversion" : 		{
			"major" : 8,
			"minor" : 1,
			"revision" : 6,
			"architecture" : "x64",
			"modernui" : 1
		}
,
		"classnamespace" : "dsp.gen",
		"rect" : [ 34.0, 79.0, 959.0, 838.0 ],
		"bglocked" : 0,
		"openinpresentation" : 0,
		"default_fontsize" : 12.0,
		"default_fontface" : 0,
		"default_fontname" : "Arial",
		"gridonopen" : 1,
		"gridsize" : [ 15.0, 15.0 ],
		"gridsnaponopen" : 1,
		"objectsnaponopen" : 1,
		"statusbarvisible" : 2,
		"toolbarvisible" : 1,
		"lefttoolbarpinned" : 0,
		"toptoolbarpinned" : 0,
		"righttoolbarpinned" : 0,
		"bottomtoolbarpinned" : 0,
		"toolbars_unpinned_last_save" : 0,
		"tallnewobj" : 0,
		"boxanimatetime" : 200,
		"enablehscroll" : 1,
		"enablevscroll" : 1,
		"devicewidth" : 0.0,
		"description" : "",
		"digest" : "",
		"tags" : "",
		"style" : "",
		"subpatcher_template" : "",
		"assistshowspatchername" : 0,
		"boxes" : [ 			{
				"box" : 				{
					"id" : "obj-6",
					"maxclass" : "newobj",
					"numinlets" : 0,
					"numoutlets" : 1,
					"outlettype" : [ "" ],
					"patching_rect" : [ 139.0, 21.0, 77.0, 22.0 ],
					"text" : "param frame"
				}

			}
, 			{
				"box" : 				{
					"code" : "History delta1(0.);\nHistory delta2(0.);\nHistory delta3(0.);\nHistory delta4(0.);\r\nHistory delta5(0.);\nHistory deltaTemp1(0.);\nHistory deltaTemp2(0.);\nHistory deltaTemp3(0.);\nHistory deltaTemp4(0.);\r\nParam frame;\r\n\r\noverlapCompensation = FFTHOP / (FFTSIZE * .5);\n\namp = in1;\nindex = in2;\r\n\r\nframeVal = frame * overlapCompensation;\nflux = delta1;\ndelta2 = deltaTemp1;\ndelta3 = deltaTemp2;\ndelta4 = deltaTemp3;\r\ndelta5 = deltaTemp4;\n\t\t\n\tif (index < (VECTORSIZE-1)){\n\t\t\n\t\tdelta1 += amp;\n\t\n\t\t}\n\t\telse\r\n\t\t{\t \r\n\t\t\t\r\n\t\tif(frameVal == 1){\n\t\t\t\n\t\tflux = overlapCompensation * (sqrt((pow(delta1 - delta2,2))/FFTSIZE));\n\t\tdeltaTemp1 = delta1;\n\t\tdelta1 = flux;\n\t\t//deltaTemp2 = deltaTemp1;\n\t\t}\r\n\r\n\t\t if(frameVal == 2){\n\t\t\r\n\t\tdelta2 = overlapCompensation * (sqrt((pow(delta2 - delta3,2))/FFTSIZE));\t\n\t\tflux = overlapCompensation * (sqrt((pow(delta1 - delta2,2))/FFTSIZE));\n\t\tdeltaTemp1 = delta1;\n\t\t\n\t\tdelta1 = flux;\n\t\tdeltaTemp2 = deltaTemp1;\n\t\t//deltaTemp3 = deltaTemp2;\n\t\t}\r\n\t\t\r\n\t \tif(frameVal == 3){\r\n\t\tdelta3 = overlapCompensation * (sqrt((pow(delta3 - delta4,2))/FFTSIZE));\r\n\t\tdelta2 = overlapCompensation * (sqrt((pow(delta2 - delta3,2))/FFTSIZE));\t\n\t\tflux = overlapCompensation * (sqrt((pow(delta1 - delta2,2))/FFTSIZE));\n\t\tdeltaTemp1 = delta1;\n\t\t\n\t\tdelta1 = flux;\n\t\tdeltaTemp2 = deltaTemp1;\n\t\tdeltaTemp3 = deltaTemp2;\r\n\t\t\r\n\t\t}\r\n\t\t\tif(frameVal == 4){\r\n\t\tdelta4 = overlapCompensation * (sqrt((pow(delta4 - delta5,2))/FFTSIZE));\r\n\t\tdelta3 = overlapCompensation * (sqrt((pow(delta3 - delta4,2))/FFTSIZE));\r\n\t\tdelta2 = overlapCompensation * (sqrt((pow(delta2 - delta3,2))/FFTSIZE));\t\n\t\tflux = overlapCompensation * (sqrt((pow(delta1 - delta2,2))/FFTSIZE));\n\t\tdeltaTemp1 = delta1;\n\t\t\n\t\tdelta1 = flux;\n\t\tdeltaTemp2 = deltaTemp1;\n\t\tdeltaTemp3 = deltaTemp2;\r\n\t\tdeltaTemp4 = deltaTemp3;\r\n\t\t\r\n\t\t}\r\n\t\tdelta1 = 0;\r\n\t\t/*delta2 = 0;\r\n\t\tdelta3 = 0;\r\n\t\tdelta4 = 0;\r\n\t\tdelta5 = 0;\r\n\t\tflux = 0;*/\r\n\t\t}\n\t\t\nout1 = overlapCompensation * (flux / (VECTORSIZE * frameVal));",
					"fontface" : 0,
					"fontname" : "<Monospaced>",
					"fontsize" : 12.0,
					"id" : "obj-3",
					"maxclass" : "codebox",
					"numinlets" : 2,
					"numoutlets" : 1,
					"outlettype" : [ "" ],
					"patching_rect" : [ 76.0, 59.0, 751.0, 646.0 ]
				}

			}
, 			{
				"box" : 				{
					"fontname" : "Lato",
					"fontsize" : 12.0,
					"id" : "obj-1",
					"maxclass" : "newobj",
					"numinlets" : 0,
					"numoutlets" : 1,
					"outlettype" : [ "" ],
					"patching_rect" : [ 76.0, 21.0, 30.0, 23.0 ],
					"text" : "in 1"
				}

			}
, 			{
				"box" : 				{
					"fontname" : "Lato",
					"fontsize" : 12.0,
					"id" : "obj-2",
					"maxclass" : "newobj",
					"numinlets" : 0,
					"numoutlets" : 1,
					"outlettype" : [ "" ],
					"patching_rect" : [ 808.0, 21.0, 30.0, 23.0 ],
					"text" : "in 2"
				}

			}
, 			{
				"box" : 				{
					"fontname" : "Lato",
					"fontsize" : 12.0,
					"id" : "obj-4",
					"maxclass" : "newobj",
					"numinlets" : 1,
					"numoutlets" : 0,
					"patching_rect" : [ 76.0, 738.0, 37.0, 23.0 ],
					"text" : "out 1"
				}

			}
 ],
		"lines" : [ 			{
				"patchline" : 				{
					"destination" : [ "obj-3", 0 ],
					"source" : [ "obj-1", 0 ]
				}

			}
, 			{
				"patchline" : 				{
					"destination" : [ "obj-3", 1 ],
					"source" : [ "obj-2", 0 ]
				}

			}
, 			{
				"patchline" : 				{
					"destination" : [ "obj-4", 0 ],
					"source" : [ "obj-3", 0 ]
				}

			}
, 			{
				"patchline" : 				{
					"destination" : [ "obj-3", 0 ],
					"source" : [ "obj-6", 0 ]
				}

			}
 ]
	}

}
